<svg xmlns="http://www.w3.org/2000/svg" width="52.172" height="52.171" viewBox="0 0 52.172 52.171"><g id="n2-logo" transform="translate(-6816 271)"><path id="Path_15" data-name="Path 15" d="M39.977,26.875V24.2l5.407-2.963q1.221-.669,1.874-1.113a3.615,3.615,0,0,0,.921-.821,1.373,1.373,0,0,0,.268-.811A1.276,1.276,0,0,0,48.2,17.7a1.605,1.605,0,0,0-.745-.519,3.431,3.431,0,0,0-1.2-.184,3.7,3.7,0,0,0-1.5.259,2,2,0,0,0-.87.695,2.17,2.17,0,0,0-.36.954H39.659a4.564,4.564,0,0,1,1.013-2.6,5.7,5.7,0,0,1,2.385-1.682,9.074,9.074,0,0,1,3.348-.586,8.462,8.462,0,0,1,2.869.456L34.782,0H23.136l.027,11.562L11.6,0H0V34.781l17.391,17.39.054-.053H29.028L29,40.59,40.528,52.118H52.172V26.875Z" transform="translate(6816 -271)" fill="#fff"></path><path id="Path_16" data-name="Path 16" d="M46.034,23.829h6.138v-4.61a3.376,3.376,0,0,1-.4.86,6.177,6.177,0,0,1-1.683,1.632,18.463,18.463,0,0,1-2.963,1.616Z" transform="translate(6816 -271)" fill="#fff"></path></g></svg>